PathFileType	4	(X/Y/Z)	C:\Users\dbl\Desktop\LZH\BX\Trimmed_bx_y_0_1801.trc
DataRate	CameraRate	NumFrames	NumMarkers	Units	OrigDataRate	OrigDataStartFrame	OrigNumFrames
50.00	50.00	      6	43	mm	50.00	738	      1475
Frame#	Time	Top.Head			R.Acromium			L.Acromium			Sternum			R.ASIS			L.ASIS			V.Sacral			R.Thigh.Upper			R.Thigh.Front			R.Thigh.Rear			R.Knee.Lat			R.Knee.Med			R.Shank.Upper			R.Shank.Front			R.Shank.Rear			R.Ankle.Lat			R.Midfoot.Lat			R.Toe.Lat			R.Toe.Tip			R.Toe.Med			R.Ankle.Med			R.Midfoot.Sup			R.Heel			L.Thigh.Upper			L.Thigh.Front			L.Thigh.Rear			L.Knee.Lat			L.Knee.Med			L.Shank.Upper			L.Shank.Front			L.Shank.Rear			L.Ankle.Lat			L.Midfoot.Lat			L.Toe.Lat			L.Toe.Tip			L.Toe.Med			L.Ankle.Med			L.Midfoot.Sup			L.Heel			origin1 front left			origin2 front right			origin 3 back right			origin 4 back leftt			
		X1	Y1	Z1	X2	Y2	Z2	X3	Y3	Z3	X4	Y4	Z4	X5	Y5	Z5	X6	Y6	Z6	X7	Y7	Z7	X8	Y8	Z8	X9	Y9	Z9	X10	Y10	Z10	X11	Y11	Z11	X12	Y12	Z12	X13	Y13	Z13	X14	Y14	Z14	X15	Y15	Z15	X16	Y16	Z16	X17	Y17	Z17	X18	Y18	Z18	X19	Y19	Z19	X20	Y20	Z20	X21	Y21	Z21	X22	Y22	Z22	X23	Y23	Z23	X24	Y24	Z24	X25	Y25	Z25	X26	Y26	Z26	X27	Y27	Z27	X28	Y28	Z28	X29	Y29	Z29	X30	Y30	Z30	X31	Y31	Z31	X32	Y32	Z32	X33	Y33	Z33	X34	Y34	Z34	X35	Y35	Z35	X36	Y36	Z36	X37	Y37	Z37	X38	Y38	Z38	X39	Y39	Z39	X40	Y40	Z40	X41	Y41	Z41	X42	Y42	Z42	X43	Y43	Z43	

738	14.740	-392.19629	456.56512	1671.03735	-499.03433	95.37432	1547.40417	-646.52393	448.77289	1462.46033	-516.25122	266.49466	1354.31567	-565.58051	80.99716	1050.33777	-605.17065	313.01450	1055.33093	-776.21161	145.19601	1056.47998	-592.92706	26.25910	888.78540	-551.57739	92.85520	843.79980	-641.59717	30.20437	744.01935	-663.75012	74.24724	598.43695	-651.91357	188.75647	570.80090	-696.55377	79.38132	534.16943	-615.30499	132.57137	550.53473	-733.66913	88.91323	466.44128	-691.40564	139.53946	210.64488	-619.61139	76.62962	163.46745	-574.60095	48.28205	159.50520	-495.72266	92.57864	162.74757	-533.17596	143.24817	166.72646	-637.57758	211.87509	224.40367	-594.78302	187.01797	172.74118	-718.51166	212.16020	171.81526	-640.16553	368.57419	888.77203	-581.36737	319.91724	841.65283	-675.94031	379.02789	754.24158	-694.05164	362.72601	626.60968	-637.23468	271.92206	572.09308	-690.87305	366.45459	565.04553	-630.15735	332.54132	543.47534	-736.40070	371.21512	508.89288	-681.15961	408.15378	219.58418	-585.82874	465.76154	167.83946	-547.64191	478.39172	160.66034	-488.98318	430.65680	170.15785	-525.26202	389.00397	177.30898	-639.89801	321.37076	204.33424	-592.03973	346.65494	167.28104	-729.98175	338.54608	165.33693	-443.99573	448.70364	148.16010	-450.36307	75.63840	143.82248	-806.28931	82.73264	142.54800	-798.87067	458.23346	145.52359	
739	14.760	-386.10114	453.47592	1669.37195	-498.61328	94.66864	1546.06616	-643.61523	449.56284	1462.99500	-515.93658	266.45877	1353.54016	-568.15222	82.11404	1050.28943	-606.43506	314.30371	1055.36572	-778.39722	147.29895	1057.02942	-595.56067	27.14507	888.98517	-554.06732	93.71616	843.92804	-644.07330	31.15754	744.18268	-665.63287	74.96489	598.59735	-653.22913	189.39989	570.53461	-698.14716	80.19168	534.18805	-616.72388	133.07460	550.65350	-734.98602	89.68743	466.31949	-691.53644	139.61934	210.53622	-619.65833	76.56971	163.45615	-574.67487	48.23320	159.46214	-495.85324	92.50220	162.84225	-533.27997	143.14790	166.89078	-637.72711	211.77441	224.35974	-594.94971	186.97870	172.69484	-718.57562	212.19464	171.75839	-641.50702	369.94003	888.73291	-582.99353	320.98294	841.64136	-677.35669	380.44312	754.21948	-695.47577	363.90375	626.52924	-638.75977	272.80948	572.23444	-692.23657	367.50079	564.99561	-631.50751	333.50009	543.59772	-737.67963	372.12537	508.66623	-681.53198	408.46539	219.36574	-585.92072	466.06793	167.54842	-547.70764	478.54819	160.52837	-489.06827	430.62817	170.17412	-525.32153	389.05713	177.42445	-640.34131	321.80554	204.42650	-592.28241	346.96344	167.24237	-730.14813	338.73807	165.32388	-443.98990	448.68976	148.15178	-450.37454	75.63124	143.84193	-806.24115	82.69188	142.56644	-798.89777	458.19315	145.52708	
740	14.780	-379.93298	450.23779	1667.64124	-498.14224	93.87586	1544.66089	-640.47296	450.35843	1463.54358	-515.60791	266.32150	1352.60437	-570.75574	83.31555	1050.25525	-607.66010	315.67572	1055.40149	-780.60583	149.53745	1057.56067	-598.30017	28.15583	889.18646	-556.63812	94.61215	844.05701	-646.61023	32.17034	744.35583	-667.51099	75.74686	598.76813	-654.47736	190.12685	570.28412	-699.74359	81.09054	534.20258	-618.10571	133.61789	550.78613	-736.31982	90.52571	466.20822	-691.67200	139.71008	210.41400	-619.73114	76.49146	163.42288	-574.76495	48.20037	159.43564	-495.99249	92.42737	162.94559	-533.39752	143.02373	167.04874	-637.86395	211.69104	224.30618	-595.05334	186.93391	172.79428	-718.60541	212.28659	171.65099	-642.83783	371.38962	888.67078	-584.66821	322.11942	841.58820	-678.82159	381.90503	754.16113	-696.95428	365.15829	626.44550	-640.37262	273.74921	572.36871	-693.69092	368.60397	564.92535	-632.95642	334.50592	543.69446	-739.02863	373.14563	508.42435	-681.90735	408.70038	219.09236	-585.96863	466.39383	167.18976	-547.78613	478.70505	160.40721	-489.15076	430.61136	170.18797	-525.39941	389.16208	177.54373	-640.74927	322.18323	204.58400	-592.50775	347.26773	167.24780	-730.33783	338.95618	165.31392	-443.98282	448.68027	148.14297	-450.38235	75.62266	143.86415	-806.16980	82.62297	142.59752	-798.91608	458.13882	145.56828	
741	14.800	-373.73651	446.85550	1665.82910	-497.65140	93.00385	1543.17334	-637.12402	451.16284	1464.11792	-515.26965	266.09567	1351.53259	-573.36743	84.59322	1050.21631	-608.83307	317.11255	1055.41638	-782.81049	151.92381	1058.05823	-601.14850	29.31297	889.38336	-559.24542	95.52664	844.19818	-649.17737	33.23590	744.54126	-669.36548	76.62126	598.93530	-655.64600	190.93164	570.06549	-701.33093	82.07397	534.21783	-619.45013	134.20482	550.92090	-737.65601	91.42085	466.11734	-691.82593	139.81000	210.28619	-619.83075	76.39715	163.35863	-574.86761	48.18214	159.42642	-496.13394	92.36092	163.05016	-533.52032	142.87254	167.20163	-637.97632	211.63591	224.26305	-595.08081	186.86911	173.04672	-718.58423	212.43427	171.47375	-644.13684	372.90021	888.57599	-586.36969	323.29242	841.48291	-680.30164	383.37769	754.04279	-698.48230	366.46136	626.33276	-642.10266	274.74332	572.46588	-695.22668	369.75391	564.81207	-634.50397	335.54083	543.76074	-740.43268	374.29453	508.14703	-682.28302	408.85870	218.73915	-585.97858	466.70334	166.81819	-547.85840	478.85315	160.30626	-489.22174	430.59793	170.19484	-525.49988	389.30295	177.67603	-641.06122	322.46060	204.81833	-592.64899	347.49301	167.39073	-730.54047	339.19742	165.29822	-443.97614	448.67487	148.13403	-450.38916	75.61105	143.88315	-806.09540	82.53799	142.63280	-798.92798	458.08151	145.63818	
742	14.820	-367.55246	443.33356	1663.93042	-497.19006	92.07467	1541.59766	-633.60022	451.98132	1464.71399	-514.92303	265.80472	1350.36365	-575.96771	85.92856	1050.15247	-609.94391	318.59799	1055.39026	-784.98938	154.45621	1058.51782	-604.08459	30.59880	889.57690	-561.83679	96.45883	844.36450	-651.73987	34.34739	744.73517	-671.18176	77.59776	599.09406	-656.73224	191.79811	569.87817	-702.88977	83.13032	534.24286	-620.75757	134.84074	551.04523	-738.97797	92.36475	466.05185	-692.00946	139.91542	210.16895	-619.95270	76.29085	163.26370	-574.97565	48.17404	159.43008	-496.27335	92.30539	163.14705	-533.64319	142.70117	167.35239	-638.06238	211.61482	224.24086	-595.04730	186.78439	173.39809	-718.51379	212.61981	171.23607	-645.39185	374.44824	888.44269	-588.07043	324.46866	841.32147	-681.75879	384.83597	753.85455	-700.05420	367.78644	626.17310	-643.94629	275.76965	572.51892	-696.82574	370.93976	564.63971	-636.13940	336.59525	543.80133	-741.87878	375.55814	507.82901	-682.66974	408.94315	218.28024	-585.97028	466.96899	166.48029	-547.90918	478.98389	160.23027	-489.27716	430.57916	170.19310	-525.62158	389.44202	177.83401	-641.26721	322.65152	205.10924	-592.67059	347.59247	167.71918	-730.74036	339.45642	165.26889	-443.97040	448.67133	148.12460	-450.39847	75.59935	143.89067	-806.04352	82.45760	142.66356	-798.93634	458.03491	145.71992	
743	14.840	-361.42020	439.67731	1661.95972	-496.81793	91.11790	1539.94763	-629.93506	452.80893	1465.31287	-514.56714	265.47159	1349.14575	-578.54126	87.29256	1050.05493	-610.98077	320.12061	1055.32104	-787.12531	157.12163	1058.94360	-607.07202	31.96477	889.77191	-564.36328	97.41914	844.56476	-654.26666	35.50225	744.92712	-672.95184	78.66692	599.24591	-657.73877	192.70515	569.70941	-704.39575	84.24269	534.28577	-622.02509	135.52597	551.14813	-740.26794	93.35210	466.01117	-692.22388	140.02319	210.08255	-620.08936	76.17680	163.14879	-575.07959	48.17181	159.43872	-496.40933	92.25709	163.22824	-533.76270	142.52603	167.50006	-638.12909	211.62578	224.23734	-594.98657	186.69450	173.75977	-718.41400	212.81479	170.97523	-646.59906	376.01071	888.26691	-589.73889	325.62622	841.10828	-683.15784	386.27393	753.60791	-701.65344	369.11908	625.96613	-645.87238	276.80161	572.53735	-698.46240	372.15311	564.40625	-637.83704	337.66879	543.82513	-743.35303	376.89572	507.47751	-683.07953	408.95654	217.70609	-585.96851	467.18054	166.19868	-547.93256	479.09357	160.17538	-489.31973	430.55087	170.18457	-525.75897	389.54007	178.02698	-641.40582	322.81680	205.41524	-592.59265	347.57571	168.20341	-730.91827	339.72287	165.22128	-443.96539	448.66727	148.11491	-450.41232	75.59256	143.87898	-806.03156	82.40196	142.68413	-798.94543	458.00641	145.79724	
